<?xml version="1.0" standalone="no"?>
<!DOCTYPE svg PUBLIC "-//W3C//DTD SVG 20010904//EN"
 "http://www.w3.org/TR/2001/REC-SVG-20010904/DTD/svg10.dtd">
<svg version="1.0" xmlns="http://www.w3.org/2000/svg"
 width="1000.000000pt" height="1000.000000pt" viewBox="0 0 1000.000000 1000.000000"
 preserveAspectRatio="xMidYMid meet">
<metadata>
Created by potrace 1.11, written by Peter Selinger 2001-2013
</metadata>
<g transform="translate(0.000000,1000.000000) scale(0.100000,-0.100000)"
fill="#000000" stroke="none">
<path d="M2270 5448 c0 -1809 4 -3230 9 -3253 5 -22 17 -76 26 -120 33 -149
98 -291 184 -399 148 -185 332 -284 621 -332 19 -3 796 -7 1725 -8 1589 -3
1695 -2 1780 15 318 63 579 196 785 400 50 50 139 169 171 229 13 25 27 47 30
50 3 3 20 42 38 87 27 72 40 119 77 283 9 40 17 6260 8 6260 -3 0 -58 -31
-122 -68 -121 -71 -533 -313 -777 -457 -77 -45 -162 -95 -190 -111 l-50 -29
-1475 -1 -1475 0 -140 69 c-77 38 -293 145 -480 237 -187 92 -428 211 -535
264 -107 53 -198 96 -202 96 -5 0 -8 -1446 -8 -3212z m1669 1683 c9 -1 10 -5
3 -13 -9 -12 -17 -50 -27 -130 -3 -20 0 -61 5 -90 42 -222 266 -369 480 -314
55 14 143 56 160 75 3 3 17 16 31 29 l26 22 41 -82 c53 -107 87 -215 98 -312
6 -46 5 -203 -1 -229 -2 -12 -7 -38 -9 -57 -22 -160 -134 -367 -272 -503 -188
-186 -487 -287 -752 -255 -157 19 -336 90 -457 181 -239 180 -376 457 -373
756 3 258 104 493 288 669 64 62 195 151 260 176 25 10 52 22 62 26 25 13 136
41 187 47 25 3 48 7 50 9 3 2 160 -1 200 -5z m2368 0 c9 -1 8 -12 -4 -43 -9
-27 -15 -74 -15 -125 0 -71 5 -90 35 -155 71 -152 211 -240 372 -234 89 4 167
33 235 88 l60 48 49 -103 c61 -128 92 -260 93 -395 1 -53 -2 -113 -5 -132 -4
-19 -9 -48 -12 -65 -38 -202 -160 -403 -330 -541 -104 -86 -279 -169 -395
-188 -157 -27 -221 -27 -380 -2 -98 15 -283 99 -375 169 -168 129 -308 342
-346 528 -24 118 -27 148 -24 249 4 118 7 136 36 235 115 398 489 677 897 670
53 -1 102 -3 109 -4z m-991 -2003 c-12 -30 -107 -231 -233 -498 -25 -52 -52
-112 -60 -132 -8 -21 -18 -38 -22 -38 -4 0 -18 24 -31 53 -13 28 -82 176 -153
327 -71 151 -133 285 -138 298 l-9 22 330 0 330 0 -14 -32z"/>
</g>
</svg>
